<svg width="38" height="44" viewBox="0 0 38 44" fill="none" xmlns="http://www.w3.org/2000/svg">
<path d="M10.7314 44C7.83203 37.8676 9.35802 34.3415 11.647 31.122C14.0886 27.4425 14.699 23.9164 14.699 23.9164C14.699 23.9164 16.6828 26.3693 15.9198 30.3554C19.2769 26.5226 19.8873 20.3902 19.4295 18.0906C27.0595 23.4564 30.4166 35.2613 25.9913 43.8467C49.4915 30.3554 31.79 10.2718 28.738 8.12544C29.8062 10.4251 29.9588 14.2578 27.8225 16.0976C24.3127 2.60627 15.6146 0 15.6146 0C16.6828 6.89896 11.9522 14.4112 7.37424 20.0836C7.22164 17.324 7.06904 15.4843 5.54305 12.7247C5.23786 17.784 1.42289 21.77 0.3547 26.8293C-1.01869 33.7282 1.42289 38.6341 10.7314 44Z" fill="white"/>
</svg>
